<svg width="52" height="23" viewBox="0 0 52 23" fill="none" xmlns="http://www.w3.org/2000/svg">
<path d="M18.92 10.57V20.71C17.96 21.19 16.79 21.57 15.41 21.85C14.05 22.13 12.66 22.27 11.24 22.27C9.06 22.27 7.17 21.84 5.57 20.98C3.97 20.1 2.74 18.85 1.88 17.23C1.04 15.59 0.62 13.65 0.62 11.41C0.62 9.19 1.04 7.27 1.88 5.65C2.74 4.01 3.95 2.76 5.51 1.9C7.09 1.02 8.94 0.579999 11.06 0.579999C12.54 0.579999 13.93 0.799999 15.23 1.24C16.53 1.66 17.61 2.27 18.47 3.07L17.18 5.86C16.2 5.1 15.23 4.56 14.27 4.24C13.33 3.9 12.29 3.73 11.15 3.73C8.97 3.73 7.32 4.38 6.2 5.68C5.1 6.96 4.55 8.87 4.55 11.41C4.55 16.61 6.83 19.21 11.39 19.21C12.75 19.21 14.11 19.02 15.47 18.64V13.33H10.91V10.57H18.92ZM36.422 7.33V22H32.762V19.75C32.302 20.55 31.682 21.17 30.902 21.61C30.122 22.03 29.242 22.24 28.262 22.24C24.662 22.24 22.862 20.22 22.862 16.18V7.33H26.612V16.21C26.612 17.25 26.822 18.02 27.242 18.52C27.662 19.02 28.322 19.27 29.222 19.27C30.262 19.27 31.092 18.93 31.712 18.25C32.352 17.55 32.672 16.63 32.672 15.49V7.33H36.422ZM40.325 22V0.849999H44.075V22H40.325ZM47.9422 22V0.849999H51.6922V22H47.9422Z" fill="white"/>
</svg>
