<svg width="14" height="18" viewBox="0 0 14 18" fill="none" xmlns="http://www.w3.org/2000/svg">
<path fill-rule="evenodd" clip-rule="evenodd" d="M6.01827 1.76779C5.94768 1.62247 5.90807 1.45944 5.90807 1.28735C5.90807 0.678979 6.40315 0.183899 7.01152 0.183899C7.62007 0.183899 8.11496 0.678979 8.11496 1.28735C8.11496 1.45944 8.07536 1.62247 8.00479 1.7678C9.96211 2.21945 11.4253 3.97619 11.4253 6.06896V10.4827C11.4253 13.4525 12.1462 14.8965 13.6322 14.8965C13.8345 14.8965 14 15.0613 14 15.2644C14 15.4674 13.8345 15.6322 13.6322 15.6322H9.56005C9.3811 16.8785 8.30661 17.8391 7.01152 17.8391C5.71659 17.8391 4.64196 16.8785 4.46299 15.6322H0.390826C0.188527 15.6322 0.0230103 15.4674 0.0230103 15.2644C0.0230103 15.0613 0.188527 14.8965 0.390826 14.8965C1.8768 14.8965 2.59772 13.4525 2.59772 10.4827V6.06896C2.59772 3.97618 4.06093 2.21943 6.01827 1.76779ZM7.01152 2.3908C4.98338 2.3908 3.33335 4.04082 3.33335 6.06896V10.4827C3.33335 11.4089 3.33335 13.7092 2.20342 14.8965L4.80462 14.8965H9.21841L11.8198 14.8965C10.6897 13.7092 10.6897 11.4089 10.6897 10.4827V6.06896C10.6897 4.04082 9.03947 2.3908 7.01152 2.3908ZM7.01152 1.65516C7.21381 1.65516 7.37933 1.48965 7.37933 1.28735C7.37933 1.08505 7.21381 0.919531 7.01152 0.919531C6.80922 0.919531 6.6437 1.08505 6.6437 1.28735C6.6437 1.48965 6.80922 1.65516 7.01152 1.65516ZM7.01152 17.1034C6.12361 17.1034 5.37988 16.471 5.20922 15.6322H8.81382C8.64315 16.471 7.89942 17.1034 7.01152 17.1034Z" fill="#663399"/>
</svg>
