<svg width="16" height="16" viewBox="0 0 16 16" fill="none" xmlns="http://www.w3.org/2000/svg">
<path fill-rule="evenodd" clip-rule="evenodd" d="M9.82967 2.11306C9.77361 2.11306 9.71701 2.09561 9.66888 2.05859L8.28415 0.999285V7.60331H15.1344L14.0743 6.21859C13.9854 6.10222 14.0077 5.93667 14.1235 5.84781C14.2399 5.75895 14.4049 5.78116 14.4943 5.897L15.879 7.70751C15.9515 7.80219 15.9525 7.93389 15.879 8.02857L14.4943 9.83908C14.443 9.90678 14.3636 9.94328 14.2848 9.94328C14.2287 9.94328 14.1722 9.92583 14.124 9.88827C14.0071 9.79941 13.9854 9.63333 14.0738 9.51749L15.1344 8.13224H8.28415V15.1347L9.66994 14.0742C9.7863 13.9853 9.95185 14.0081 10.0407 14.1234C10.1296 14.2397 10.1074 14.4053 9.99152 14.4942L8.18101 15.8794C8.13235 15.9164 8.07628 15.9339 8.01969 15.9339C7.96309 15.9339 7.9065 15.9164 7.8589 15.8794L6.04891 14.4942C5.93255 14.4058 5.91086 14.2397 5.99972 14.1234C6.08805 14.007 6.25414 13.9843 6.3705 14.0742L7.75523 15.1339V8.13224H0.998078L2.0587 9.51855C2.14756 9.63439 2.12534 9.80047 2.00951 9.88933C1.96138 9.92583 1.90478 9.94328 1.84871 9.94328C1.76938 9.94328 1.69057 9.90784 1.63873 9.83961L0.253474 8.0291C0.180483 7.93442 0.180483 7.80272 0.253474 7.70804L1.63873 5.89753C1.72759 5.78169 1.89314 5.75948 2.00951 5.84834C2.12534 5.9372 2.14756 6.10275 2.0587 6.21911L0.999017 7.60331H7.75523V0.998476L6.36944 2.05859C6.25361 2.14745 6.08752 2.12523 5.99866 2.0094C5.9098 1.89356 5.93202 1.72748 6.04785 1.63862L7.85784 0.252833C7.95304 0.180371 8.08422 0.180371 8.17942 0.252833L9.98994 1.63862C10.1058 1.72695 10.128 1.89303 10.0386 2.0094C9.98835 2.0771 9.90901 2.11306 9.82967 2.11306Z" fill="#663399"/>
</svg>
